PathFileType	4	(X/Y/Z)	c:/Users/goper/Files/vsCode/490R/osim_files/A04/A04_Fast_05.trc
DataRate	CameraRate	NumFrames	NumMarkers	Units                	OrigDataRate	OrigDataStartFrame	OrigNumFrames
120.00	120.00	6	36	mm	120.0	1017	1162
                Frame#	Time	LPSIS			LASIS			LTH1			LTH2			LTH3			LTH4			LLFE			LMFE			LSH1			LSH2			LSH3			LSH4			LLMAL			LMMAL			LCAL			LMTP5			LTOE			LMTP1			RPSIS			RASIS			RTH1			RTH2			RTH3			RTH4			RLFE			RMFE			RSH1			RSH2			RSH3			RSH4			RLMAL			RMMAL			RCAL			RMTP1			RTOE			RMTP5		
		X1	Y1	Z1	X2	Y2	Z2	X3	Y3	Z3	X4	Y4	Z4	X5	Y5	Z5	X6	Y6	Z6	X7	Y7	Z7	X8	Y8	Z8	X9	Y9	Z9	X10	Y10	Z10	X11	Y11	Z11	X12	Y12	Z12	X13	Y13	Z13	X14	Y14	Z14	X15	Y15	Z15	X16	Y16	Z16	X17	Y17	Z17	X18	Y18	Z18	X19	Y19	Z19	X20	Y20	Z20	X21	Y21	Z21	X22	Y22	Z22	X23	Y23	Z23	X24	Y24	Z24	X25	Y25	Z25	X26	Y26	Z26	X27	Y27	Z27	X28	Y28	Z28	X29	Y29	Z29	X30	Y30	Z30	X31	Y31	Z31	X32	Y32	Z32	X33	Y33	Z33	X34	Y34	Z34	X35	Y35	Z35	X36	Y36	Z36

1017	8.46667	-3567.89209	1084.16711	375.61121	-3792.85474	1039.00977	449.92432	0.00000	0.00000	0.00000	-3904.39355	733.08472	501.38348	-3826.93311	737.87189	498.36893	0.00000	0.00000	0.00000	-3933.06226	581.80542	497.65143	0.00000	0.00000	0.00000	0.00000	0.00000	0.00000	-3862.00049	453.13153	503.90253	-3927.22681	478.90698	488.86545	-3909.94629	438.38620	488.06812	-3747.38086	193.53278	471.30441	-3763.89185	185.90202	385.51303	-3670.20703	183.14702	419.42441	-3854.11816	86.62775	502.18787	-3900.01099	79.04879	438.05499	-3875.43579	71.94050	394.94470	0.00000	0.00000	0.00000	0.00000	0.00000	0.00000	0.00000	0.00000	0.00000	0.00000	0.00000	0.00000	-3708.97119	730.78723	149.16745	0.00000	0.00000	0.00000	0.00000	0.00000	0.00000	-3868.73779	495.77048	505.63638	0.00000	0.00000	0.00000	0.00000	0.00000	0.00000	-3671.70337	339.68274	211.46635	-3662.28027	293.09076	219.40540	0.00000	0.00000	0.00000	0.00000	0.00000	0.00000	0.00000	0.00000	0.00000	-3790.91162	66.24674	336.99786	-3806.89111	86.37009	287.95010	-3766.09814	58.12599	219.78401
1018	8.47500	-3577.00171	1083.99512	375.67279	-3802.39551	1038.09009	449.45273	0.00000	0.00000	0.00000	-3915.03271	733.32111	499.69012	-3836.86670	737.37543	496.72488	0.00000	0.00000	0.00000	-3945.23779	582.91364	495.70984	0.00000	0.00000	0.00000	0.00000	0.00000	0.00000	-3879.92456	450.98102	502.54684	-3944.06689	479.78598	487.04694	-3928.55347	438.48584	486.42587	-3777.16772	186.68416	471.13284	-3792.96509	179.27185	385.05130	-3700.02246	172.67313	420.32932	-3889.08618	84.85633	501.16919	-3934.46484	79.02843	436.56302	-3909.68335	70.57624	393.71808	0.00000	0.00000	0.00000	0.00000	0.00000	0.00000	0.00000	0.00000	0.00000	0.00000	0.00000	0.00000	-3714.92578	730.51538	149.26924	0.00000	0.00000	0.00000	0.00000	0.00000	0.00000	-3884.96313	494.01178	504.34900	0.00000	0.00000	0.00000	0.00000	0.00000	0.00000	-3673.36743	339.70816	211.54938	-3663.74902	293.18121	219.48694	0.00000	0.00000	0.00000	0.00000	0.00000	0.00000	-3562.36938	66.43853	328.01764	0.00000	0.00000	0.00000	-3807.05298	85.97469	288.07028	-3766.23853	58.07505	219.87030
1019	8.48333	-3586.65479	1082.55432	376.15341	-3812.00977	1037.06604	449.09436	0.00000	0.00000	0.00000	-3925.66357	733.27325	497.99112	-3846.46777	736.52966	494.97244	0.00000	0.00000	0.00000	-3956.60132	583.55646	493.83414	0.00000	0.00000	0.00000	0.00000	0.00000	0.00000	-3897.44360	448.78265	501.08264	-3960.13965	480.48383	485.20047	-3946.69287	438.59882	484.74628	-3806.70190	179.56985	470.98181	-3822.46118	173.32176	384.91272	-3730.06079	162.46053	420.44675	-3923.53076	83.21728	500.18701	-3968.87671	79.72126	435.32867	-3944.27881	70.25297	392.53323	0.00000	0.00000	0.00000	0.00000	0.00000	0.00000	0.00000	0.00000	0.00000	-3659.35010	691.37378	164.52672	-3720.73291	730.19183	149.51611	0.00000	0.00000	0.00000	0.00000	0.00000	0.00000	-3900.69556	492.06525	502.95407	0.00000	0.00000	0.00000	0.00000	0.00000	0.00000	-3674.96948	339.72556	211.62497	-3666.04858	293.63092	220.14148	0.00000	0.00000	0.00000	-3665.33105	121.90231	369.27298	-3562.54785	66.83704	328.02972	0.00000	0.00000	0.00000	-3808.36987	87.22615	288.20642	-3766.33643	58.01455	219.94241
1020	8.49167	-3596.16113	1082.27637	376.11581	-3821.63647	1035.95374	448.79346	0.00000	0.00000	0.00000	-3935.67358	732.76843	496.19858	-3856.10278	735.49603	493.26096	0.00000	0.00000	0.00000	-3967.04346	583.87445	491.98230	0.00000	0.00000	0.00000	0.00000	0.00000	0.00000	-3914.40747	446.45615	499.57489	-3975.45703	480.93710	483.42053	-3963.93628	438.44299	483.04221	-3836.43945	172.87483	470.57272	-3852.38916	167.84160	384.41388	-3760.60498	152.41986	419.94385	-3957.71338	82.01054	499.06342	-4003.02661	80.86806	434.08810	-3978.89893	70.49989	391.32333	0.00000	0.00000	0.00000	0.00000	0.00000	0.00000	0.00000	0.00000	0.00000	-3664.71826	691.55463	164.67122	-3726.31323	729.72406	149.72061	0.00000	0.00000	0.00000	0.00000	0.00000	0.00000	-3915.75610	489.83328	501.44321	0.00000	0.00000	0.00000	0.00000	0.00000	0.00000	-3676.57812	339.71805	211.71442	-3667.34521	293.69882	220.25526	0.00000	0.00000	0.00000	-3662.87793	122.55026	368.52069	-3562.03735	67.75706	327.31223	0.00000	0.00000	0.00000	-3807.39600	85.46429	288.34393	-3766.46045	58.01436	219.98817
1021	8.50000	-3605.61475	1081.27380	376.31436	-3831.32153	1034.76599	448.54501	0.00000	0.00000	0.00000	-3945.35376	731.77527	494.37848	-3865.35791	734.09711	491.49698	0.00000	0.00000	0.00000	-3976.69336	583.58801	490.17850	0.00000	0.00000	0.00000	0.00000	0.00000	0.00000	-3930.76099	443.87558	497.91589	-3990.22607	481.24951	481.70120	-3980.68848	438.24957	481.35193	-3866.27881	166.79785	469.23077	-3882.34009	162.49132	383.02191	-3791.17700	142.76605	418.59494	-3991.71167	81.75216	497.62143	-4037.01611	82.76834	432.65134	-4013.39697	71.30971	389.89807	0.00000	0.00000	0.00000	0.00000	0.00000	0.00000	0.00000	0.00000	0.00000	0.00000	0.00000	0.00000	-3732.39624	729.43799	150.03239	0.00000	0.00000	0.00000	0.00000	0.00000	0.00000	-3930.09229	487.29514	499.78079	0.00000	0.00000	0.00000	0.00000	0.00000	0.00000	-3678.36694	339.81052	211.86992	-3668.89453	293.84619	220.36728	0.00000	0.00000	0.00000	-3663.81958	122.34880	369.48407	-3562.21973	68.22163	327.24716	0.00000	0.00000	0.00000	-3807.56445	85.11926	288.44946	-3766.56934	57.96254	220.04871
1022	8.50833	-3615.27466	1079.46069	376.73111	-3841.10840	1033.57410	448.41681	0.00000	0.00000	0.00000	-3954.45312	730.33612	492.53250	-3874.59106	732.56573	489.64047	0.00000	0.00000	0.00000	-3985.51709	582.94592	488.39053	-3994.38208	582.29840	348.59900	0.00000	0.00000	0.00000	-3946.48145	441.10312	495.98169	-4004.04395	481.27435	479.91647	-3996.70142	437.90826	479.58224	-3895.86108	161.23346	467.10352	-3912.28491	157.55368	381.04163	-3821.68286	133.55190	416.54166	-4025.28809	82.52219	495.94299	-4070.64233	85.67706	431.07718	-4047.63867	72.91621	388.23022	0.00000	0.00000	0.00000	0.00000	0.00000	0.00000	0.00000	0.00000	0.00000	0.00000	0.00000	0.00000	-3738.05933	728.95721	150.30258	0.00000	0.00000	0.00000	0.00000	0.00000	0.00000	-3943.86938	484.52438	497.94308	0.00000	0.00000	0.00000	0.00000	0.00000	0.00000	-3680.20972	339.88449	212.03273	-3669.51221	293.52716	219.94402	0.00000	0.00000	0.00000	-3664.24048	122.48812	369.52106	-3563.12939	68.05027	327.94757	0.00000	0.00000	0.00000	-3807.79565	84.91396	288.61359	-3766.70874	57.93939	220.11967
